M48
; DRILL file {KiCad (6.0.8-1)-1} date Sunday, November 13, 2022 at 11:53:54 PM
; FORMAT={-:-/ absolute / metric / decimal}
; #@! TF.CreationDate,2022-11-13T23:53:54-06:00
; #@! TF.GenerationSoftware,Kicad,Pcbnew,(6.0.8-1)-1
; #@! TF.FileFunction,Plated,1,2,PTH
FMAT,2
METRIC
; #@! TA.AperFunction,Plated,PTH,ComponentDrill
T1C1.000
%
G90
G05
T1
X124.46Y-50.81
X124.46Y-53.35
X124.46Y-55.89
X124.46Y-58.43
X124.46Y-60.97
X124.46Y-63.51
X124.46Y-66.05
X124.46Y-68.59
X124.46Y-71.13
X124.46Y-73.67
X124.46Y-76.21
X124.46Y-78.75
X124.46Y-81.29
X124.46Y-83.83
X124.46Y-86.37
X124.46Y-88.91
X124.46Y-91.45
X124.46Y-93.99
X124.46Y-96.53
X124.46Y-99.07
X124.46Y-101.61
X124.46Y-104.15
X124.46Y-106.69
X124.46Y-109.23
X127.0Y-50.81
X127.0Y-53.35
X127.0Y-55.89
X127.0Y-58.43
X127.0Y-60.97
X127.0Y-63.51
X127.0Y-66.05
X127.0Y-68.59
X127.0Y-71.13
X127.0Y-73.67
X127.0Y-76.21
X127.0Y-78.75
X127.0Y-81.29
X127.0Y-83.83
X127.0Y-86.37
X127.0Y-88.91
X127.0Y-91.45
X127.0Y-93.99
X127.0Y-96.53
X127.0Y-99.07
X127.0Y-101.61
X127.0Y-104.15
X127.0Y-106.69
X127.0Y-109.23
X132.08Y-50.81
X132.08Y-53.35
X132.08Y-55.89
X132.08Y-58.43
X132.08Y-60.97
X132.08Y-63.51
X132.08Y-66.05
X132.08Y-68.59
X132.08Y-71.13
X132.08Y-73.67
X132.08Y-76.21
X132.08Y-78.75
X132.08Y-81.29
X132.08Y-83.83
X132.08Y-86.37
X132.08Y-88.91
X132.08Y-91.45
X132.08Y-93.99
X132.08Y-96.53
X132.08Y-99.07
X132.08Y-101.61
X132.08Y-104.15
X132.08Y-106.69
X132.08Y-109.23
X134.62Y-50.81
X134.62Y-53.35
X134.62Y-55.89
X134.62Y-58.43
X134.62Y-60.97
X134.62Y-63.51
X134.62Y-66.05
X134.62Y-68.59
X134.62Y-71.13
X134.62Y-73.67
X134.62Y-76.21
X134.62Y-78.75
X134.62Y-81.29
X134.62Y-83.83
X134.62Y-86.37
X134.62Y-88.91
X134.62Y-91.45
X134.62Y-93.99
X134.62Y-96.53
X134.62Y-99.07
X134.62Y-101.61
X134.62Y-104.15
X134.62Y-106.69
X134.62Y-109.23
X137.16Y-50.81
X137.16Y-53.35
X137.16Y-55.89
X137.16Y-58.43
X137.16Y-60.97
X137.16Y-63.51
X137.16Y-66.05
X137.16Y-68.59
X137.16Y-71.13
X137.16Y-73.67
X137.16Y-76.21
X137.16Y-78.75
X137.16Y-81.29
X137.16Y-83.83
X137.16Y-86.37
X137.16Y-88.91
X137.16Y-91.45
X137.16Y-93.99
X137.16Y-96.53
X137.16Y-99.07
X137.16Y-101.61
X137.16Y-104.15
X137.16Y-106.69
X137.16Y-109.23
X139.7Y-50.81
X139.7Y-53.35
X139.7Y-55.89
X139.7Y-58.43
X139.7Y-60.97
X139.7Y-63.51
X139.7Y-66.05
X139.7Y-68.59
X139.7Y-71.13
X139.7Y-73.67
X139.7Y-76.21
X139.7Y-78.75
X139.7Y-81.29
X139.7Y-83.83
X139.7Y-86.37
X139.7Y-88.91
X139.7Y-91.45
X139.7Y-93.99
X139.7Y-96.53
X139.7Y-99.07
X139.7Y-101.61
X139.7Y-104.15
X139.7Y-106.69
X139.7Y-109.23
X142.24Y-50.81
X142.24Y-53.35
X142.24Y-55.89
X142.24Y-58.43
X142.24Y-60.97
X142.24Y-63.51
X142.24Y-66.05
X142.24Y-68.59
X142.24Y-71.13
X142.24Y-73.67
X142.24Y-76.21
X142.24Y-78.75
X142.24Y-81.29
X142.24Y-83.83
X142.24Y-86.37
X142.24Y-88.91
X142.24Y-91.45
X142.24Y-93.99
X142.24Y-96.53
X142.24Y-99.07
X142.24Y-101.61
X142.24Y-104.15
X142.24Y-106.69
X142.24Y-109.23
X149.86Y-50.81
X149.86Y-53.35
X149.86Y-55.89
X149.86Y-58.43
X149.86Y-60.97
X149.86Y-63.51
X149.86Y-66.05
X149.86Y-68.59
X149.86Y-71.13
X149.86Y-73.67
X149.86Y-76.21
X149.86Y-78.75
X149.86Y-81.29
X149.86Y-83.83
X149.86Y-86.37
X149.86Y-88.91
X149.86Y-91.45
X149.86Y-93.99
X149.86Y-96.53
X149.86Y-99.07
X149.86Y-101.61
X149.86Y-104.15
X149.86Y-106.69
X149.86Y-109.23
X152.4Y-50.81
X152.4Y-53.35
X152.4Y-55.89
X152.4Y-58.43
X152.4Y-60.97
X152.4Y-63.51
X152.4Y-66.05
X152.4Y-68.59
X152.4Y-71.13
X152.4Y-73.67
X152.4Y-76.21
X152.4Y-78.75
X152.4Y-81.29
X152.4Y-83.83
X152.4Y-86.37
X152.4Y-88.91
X152.4Y-91.45
X152.4Y-93.99
X152.4Y-96.53
X152.4Y-99.07
X152.4Y-101.61
X152.4Y-104.15
X152.4Y-106.69
X152.4Y-109.23
X154.94Y-50.81
X154.94Y-53.35
X154.94Y-55.89
X154.94Y-58.43
X154.94Y-60.97
X154.94Y-63.51
X154.94Y-66.05
X154.94Y-68.59
X154.94Y-71.13
X154.94Y-73.67
X154.94Y-76.21
X154.94Y-78.75
X154.94Y-81.29
X154.94Y-83.83
X154.94Y-86.37
X154.94Y-88.91
X154.94Y-91.45
X154.94Y-93.99
X154.94Y-96.53
X154.94Y-99.07
X154.94Y-101.61
X154.94Y-104.15
X154.94Y-106.69
X154.94Y-109.23
X157.48Y-50.81
X157.48Y-53.35
X157.48Y-55.89
X157.48Y-58.43
X157.48Y-60.97
X157.48Y-63.51
X157.48Y-66.05
X157.48Y-68.59
X157.48Y-71.13
X157.48Y-73.67
X157.48Y-76.21
X157.48Y-78.75
X157.48Y-81.29
X157.48Y-83.83
X157.48Y-86.37
X157.48Y-88.91
X157.48Y-91.45
X157.48Y-93.99
X157.48Y-96.53
X157.48Y-99.07
X157.48Y-101.61
X157.48Y-104.15
X157.48Y-106.69
X157.48Y-109.23
X160.02Y-50.81
X160.02Y-53.35
X160.02Y-55.89
X160.02Y-58.43
X160.02Y-60.97
X160.02Y-63.51
X160.02Y-66.05
X160.02Y-68.59
X160.02Y-71.13
X160.02Y-73.67
X160.02Y-76.21
X160.02Y-78.75
X160.02Y-81.29
X160.02Y-83.83
X160.02Y-86.37
X160.02Y-88.91
X160.02Y-91.45
X160.02Y-93.99
X160.02Y-96.53
X160.02Y-99.07
X160.02Y-101.61
X160.02Y-104.15
X160.02Y-106.69
X160.02Y-109.23
X165.1Y-50.81
X165.1Y-53.35
X165.1Y-55.89
X165.1Y-58.43
X165.1Y-60.97
X165.1Y-63.51
X165.1Y-66.05
X165.1Y-68.59
X165.1Y-71.13
X165.1Y-73.67
X165.1Y-76.21
X165.1Y-78.75
X165.1Y-81.29
X165.1Y-83.83
X165.1Y-86.37
X165.1Y-88.91
X165.1Y-91.45
X165.1Y-93.99
X165.1Y-96.53
X165.1Y-99.07
X165.1Y-101.61
X165.1Y-104.15
X165.1Y-106.69
X165.1Y-109.23
X167.64Y-50.81
X167.64Y-53.35
X167.64Y-55.89
X167.64Y-58.43
X167.64Y-60.97
X167.64Y-63.51
X167.64Y-66.05
X167.64Y-68.59
X167.64Y-71.13
X167.64Y-73.67
X167.64Y-76.21
X167.64Y-78.75
X167.64Y-81.29
X167.64Y-83.83
X167.64Y-86.37
X167.64Y-88.91
X167.64Y-91.45
X167.64Y-93.99
X167.64Y-96.53
X167.64Y-99.07
X167.64Y-101.61
X167.64Y-104.15
X167.64Y-106.69
X167.64Y-109.23
T0
M30
