G04 #@! TF.GenerationSoftware,KiCad,Pcbnew,(6.0.8-1)-1*
G04 #@! TF.CreationDate,2022-11-13T23:51:15-06:00*
G04 #@! TF.ProjectId,BlocksBreadboard,426c6f63-6b73-4427-9265-6164626f6172,rev?*
G04 #@! TF.SameCoordinates,Original*
G04 #@! TF.FileFunction,Soldermask,Top*
G04 #@! TF.FilePolarity,Negative*
%FSLAX46Y46*%
G04 Gerber Fmt 4.6, Leading zero omitted, Abs format (unit mm)*
G04 Created by KiCad (PCBNEW (6.0.8-1)-1) date 2022-11-13 23:51:15*
%MOMM*%
%LPD*%
G01*
G04 APERTURE LIST*
%ADD10C,1.700000*%
%ADD11O,1.700000X1.700000*%
G04 APERTURE END LIST*
D10*
X132080000Y-50810000D03*
D11*
X132080000Y-53350000D03*
X132080000Y-55890000D03*
X132080000Y-58430000D03*
X132080000Y-60970000D03*
X132080000Y-63510000D03*
X132080000Y-66050000D03*
X132080000Y-68590000D03*
X132080000Y-71130000D03*
X132080000Y-73670000D03*
X132080000Y-76210000D03*
X132080000Y-78750000D03*
X132080000Y-81290000D03*
X132080000Y-83830000D03*
X132080000Y-86370000D03*
X132080000Y-88910000D03*
X132080000Y-91450000D03*
X132080000Y-93990000D03*
X132080000Y-96530000D03*
X132080000Y-99070000D03*
X132080000Y-101610000D03*
X132080000Y-104150000D03*
X132080000Y-106690000D03*
X132080000Y-109230000D03*
D10*
X160020000Y-50810000D03*
D11*
X160020000Y-53350000D03*
X160020000Y-55890000D03*
X160020000Y-58430000D03*
X160020000Y-60970000D03*
X160020000Y-63510000D03*
X160020000Y-66050000D03*
X160020000Y-68590000D03*
X160020000Y-71130000D03*
X160020000Y-73670000D03*
X160020000Y-76210000D03*
X160020000Y-78750000D03*
X160020000Y-81290000D03*
X160020000Y-83830000D03*
X160020000Y-86370000D03*
X160020000Y-88910000D03*
X160020000Y-91450000D03*
X160020000Y-93990000D03*
X160020000Y-96530000D03*
X160020000Y-99070000D03*
X160020000Y-101610000D03*
X160020000Y-104150000D03*
X160020000Y-106690000D03*
X160020000Y-109230000D03*
D10*
X134620000Y-50810000D03*
D11*
X134620000Y-53350000D03*
X134620000Y-55890000D03*
X134620000Y-58430000D03*
X134620000Y-60970000D03*
X134620000Y-63510000D03*
X134620000Y-66050000D03*
X134620000Y-68590000D03*
X134620000Y-71130000D03*
X134620000Y-73670000D03*
X134620000Y-76210000D03*
X134620000Y-78750000D03*
X134620000Y-81290000D03*
X134620000Y-83830000D03*
X134620000Y-86370000D03*
X134620000Y-88910000D03*
X134620000Y-91450000D03*
X134620000Y-93990000D03*
X134620000Y-96530000D03*
X134620000Y-99070000D03*
X134620000Y-101610000D03*
X134620000Y-104150000D03*
X134620000Y-106690000D03*
X134620000Y-109230000D03*
D10*
X157480000Y-50810000D03*
D11*
X157480000Y-53350000D03*
X157480000Y-55890000D03*
X157480000Y-58430000D03*
X157480000Y-60970000D03*
X157480000Y-63510000D03*
X157480000Y-66050000D03*
X157480000Y-68590000D03*
X157480000Y-71130000D03*
X157480000Y-73670000D03*
X157480000Y-76210000D03*
X157480000Y-78750000D03*
X157480000Y-81290000D03*
X157480000Y-83830000D03*
X157480000Y-86370000D03*
X157480000Y-88910000D03*
X157480000Y-91450000D03*
X157480000Y-93990000D03*
X157480000Y-96530000D03*
X157480000Y-99070000D03*
X157480000Y-101610000D03*
X157480000Y-104150000D03*
X157480000Y-106690000D03*
X157480000Y-109230000D03*
D10*
X124460000Y-50810000D03*
D11*
X124460000Y-53350000D03*
X124460000Y-55890000D03*
X124460000Y-58430000D03*
X124460000Y-60970000D03*
X124460000Y-63510000D03*
X124460000Y-66050000D03*
X124460000Y-68590000D03*
X124460000Y-71130000D03*
X124460000Y-73670000D03*
X124460000Y-76210000D03*
X124460000Y-78750000D03*
X124460000Y-81290000D03*
X124460000Y-83830000D03*
X124460000Y-86370000D03*
X124460000Y-88910000D03*
X124460000Y-91450000D03*
X124460000Y-93990000D03*
X124460000Y-96530000D03*
X124460000Y-99070000D03*
X124460000Y-101610000D03*
X124460000Y-104150000D03*
X124460000Y-106690000D03*
X124460000Y-109230000D03*
D10*
X149860000Y-50810000D03*
D11*
X149860000Y-53350000D03*
X149860000Y-55890000D03*
X149860000Y-58430000D03*
X149860000Y-60970000D03*
X149860000Y-63510000D03*
X149860000Y-66050000D03*
X149860000Y-68590000D03*
X149860000Y-71130000D03*
X149860000Y-73670000D03*
X149860000Y-76210000D03*
X149860000Y-78750000D03*
X149860000Y-81290000D03*
X149860000Y-83830000D03*
X149860000Y-86370000D03*
X149860000Y-88910000D03*
X149860000Y-91450000D03*
X149860000Y-93990000D03*
X149860000Y-96530000D03*
X149860000Y-99070000D03*
X149860000Y-101610000D03*
X149860000Y-104150000D03*
X149860000Y-106690000D03*
X149860000Y-109230000D03*
D10*
X152400000Y-50810000D03*
D11*
X152400000Y-53350000D03*
X152400000Y-55890000D03*
X152400000Y-58430000D03*
X152400000Y-60970000D03*
X152400000Y-63510000D03*
X152400000Y-66050000D03*
X152400000Y-68590000D03*
X152400000Y-71130000D03*
X152400000Y-73670000D03*
X152400000Y-76210000D03*
X152400000Y-78750000D03*
X152400000Y-81290000D03*
X152400000Y-83830000D03*
X152400000Y-86370000D03*
X152400000Y-88910000D03*
X152400000Y-91450000D03*
X152400000Y-93990000D03*
X152400000Y-96530000D03*
X152400000Y-99070000D03*
X152400000Y-101610000D03*
X152400000Y-104150000D03*
X152400000Y-106690000D03*
X152400000Y-109230000D03*
D10*
X165100000Y-50810000D03*
D11*
X165100000Y-53350000D03*
X165100000Y-55890000D03*
X165100000Y-58430000D03*
X165100000Y-60970000D03*
X165100000Y-63510000D03*
X165100000Y-66050000D03*
X165100000Y-68590000D03*
X165100000Y-71130000D03*
X165100000Y-73670000D03*
X165100000Y-76210000D03*
X165100000Y-78750000D03*
X165100000Y-81290000D03*
X165100000Y-83830000D03*
X165100000Y-86370000D03*
X165100000Y-88910000D03*
X165100000Y-91450000D03*
X165100000Y-93990000D03*
X165100000Y-96530000D03*
X165100000Y-99070000D03*
X165100000Y-101610000D03*
X165100000Y-104150000D03*
X165100000Y-106690000D03*
X165100000Y-109230000D03*
D10*
X127000000Y-50810000D03*
D11*
X127000000Y-53350000D03*
X127000000Y-55890000D03*
X127000000Y-58430000D03*
X127000000Y-60970000D03*
X127000000Y-63510000D03*
X127000000Y-66050000D03*
X127000000Y-68590000D03*
X127000000Y-71130000D03*
X127000000Y-73670000D03*
X127000000Y-76210000D03*
X127000000Y-78750000D03*
X127000000Y-81290000D03*
X127000000Y-83830000D03*
X127000000Y-86370000D03*
X127000000Y-88910000D03*
X127000000Y-91450000D03*
X127000000Y-93990000D03*
X127000000Y-96530000D03*
X127000000Y-99070000D03*
X127000000Y-101610000D03*
X127000000Y-104150000D03*
X127000000Y-106690000D03*
X127000000Y-109230000D03*
D10*
X139700000Y-50810000D03*
D11*
X139700000Y-53350000D03*
X139700000Y-55890000D03*
X139700000Y-58430000D03*
X139700000Y-60970000D03*
X139700000Y-63510000D03*
X139700000Y-66050000D03*
X139700000Y-68590000D03*
X139700000Y-71130000D03*
X139700000Y-73670000D03*
X139700000Y-76210000D03*
X139700000Y-78750000D03*
X139700000Y-81290000D03*
X139700000Y-83830000D03*
X139700000Y-86370000D03*
X139700000Y-88910000D03*
X139700000Y-91450000D03*
X139700000Y-93990000D03*
X139700000Y-96530000D03*
X139700000Y-99070000D03*
X139700000Y-101610000D03*
X139700000Y-104150000D03*
X139700000Y-106690000D03*
X139700000Y-109230000D03*
D10*
X137160000Y-50810000D03*
D11*
X137160000Y-53350000D03*
X137160000Y-55890000D03*
X137160000Y-58430000D03*
X137160000Y-60970000D03*
X137160000Y-63510000D03*
X137160000Y-66050000D03*
X137160000Y-68590000D03*
X137160000Y-71130000D03*
X137160000Y-73670000D03*
X137160000Y-76210000D03*
X137160000Y-78750000D03*
X137160000Y-81290000D03*
X137160000Y-83830000D03*
X137160000Y-86370000D03*
X137160000Y-88910000D03*
X137160000Y-91450000D03*
X137160000Y-93990000D03*
X137160000Y-96530000D03*
X137160000Y-99070000D03*
X137160000Y-101610000D03*
X137160000Y-104150000D03*
X137160000Y-106690000D03*
X137160000Y-109230000D03*
D10*
X154940000Y-50810000D03*
D11*
X154940000Y-53350000D03*
X154940000Y-55890000D03*
X154940000Y-58430000D03*
X154940000Y-60970000D03*
X154940000Y-63510000D03*
X154940000Y-66050000D03*
X154940000Y-68590000D03*
X154940000Y-71130000D03*
X154940000Y-73670000D03*
X154940000Y-76210000D03*
X154940000Y-78750000D03*
X154940000Y-81290000D03*
X154940000Y-83830000D03*
X154940000Y-86370000D03*
X154940000Y-88910000D03*
X154940000Y-91450000D03*
X154940000Y-93990000D03*
X154940000Y-96530000D03*
X154940000Y-99070000D03*
X154940000Y-101610000D03*
X154940000Y-104150000D03*
X154940000Y-106690000D03*
X154940000Y-109230000D03*
D10*
X167640000Y-50810000D03*
D11*
X167640000Y-53350000D03*
X167640000Y-55890000D03*
X167640000Y-58430000D03*
X167640000Y-60970000D03*
X167640000Y-63510000D03*
X167640000Y-66050000D03*
X167640000Y-68590000D03*
X167640000Y-71130000D03*
X167640000Y-73670000D03*
X167640000Y-76210000D03*
X167640000Y-78750000D03*
X167640000Y-81290000D03*
X167640000Y-83830000D03*
X167640000Y-86370000D03*
X167640000Y-88910000D03*
X167640000Y-91450000D03*
X167640000Y-93990000D03*
X167640000Y-96530000D03*
X167640000Y-99070000D03*
X167640000Y-101610000D03*
X167640000Y-104150000D03*
X167640000Y-106690000D03*
X167640000Y-109230000D03*
D10*
X142240000Y-50810000D03*
D11*
X142240000Y-53350000D03*
X142240000Y-55890000D03*
X142240000Y-58430000D03*
X142240000Y-60970000D03*
X142240000Y-63510000D03*
X142240000Y-66050000D03*
X142240000Y-68590000D03*
X142240000Y-71130000D03*
X142240000Y-73670000D03*
X142240000Y-76210000D03*
X142240000Y-78750000D03*
X142240000Y-81290000D03*
X142240000Y-83830000D03*
X142240000Y-86370000D03*
X142240000Y-88910000D03*
X142240000Y-91450000D03*
X142240000Y-93990000D03*
X142240000Y-96530000D03*
X142240000Y-99070000D03*
X142240000Y-101610000D03*
X142240000Y-104150000D03*
X142240000Y-106690000D03*
X142240000Y-109230000D03*
M02*
